<?xml version="1.0" encoding="UTF-8"?>
<svg id="Calque_1" xmlns="http://www.w3.org/2000/svg" version="1.1" viewBox="0 0 2217.4 907.2">
  <!-- Generator: Adobe Illustrator 29.3.1, SVG Export Plug-In . SVG Version: 2.1.0 Build 151)  -->
  <defs>
    <style>
      .st0 {
        fill: #2e8250;
      }

      .st1, .st2 {
        isolation: isolate;
      }

      .st2 {
        font-family: Blanka-Regular, Blanka;
        font-size: 454.2px;
      }

      .st2, .st3 {
        fill: #fff;
      }
    </style>
  </defs>
  <rect class="st0" x="76.2" y="83" width="2060.9" height="759.4" rx="261.6" ry="261.6"/>
  <g class="st1">
    <text class="st2" transform="translate(720.4 668.1)"><tspan x="0" y="0">Pulse</tspan></text>
  </g>
  <g>
    <path class="st3" d="M481.5,202.1c79.2-6.1,159,77.4,112.1,165.3-18.4,34.4-50.7,56.5-71.6,86.4-9.5,13.6-4.3,21.7,4.8,32.3,28.8,33.5,74.5,71.7,80.5,120.4,11.8,95.2-79,147.6-153,125.7-62-18.4-106.4-82.5-76.7-153.8,16.1-38.8,54.6-65.1,77.9-97.3,6.7-9.3,6.1-17.2-.4-26.5-39-44.8-101.5-93.5-82.6-165.8,13.6-52.1,62.5-83.3,109-86.9h0ZM459.3,495.9c-23.7,28.7-65.5,64.6-75,101.9-15.8,61.6,25.4,108.8,76.3,121.9,66.2,17.1,146-28.9,133.7-114-6.7-46.7-56.1-82.6-82.9-116-9-13.2-9.3-30.8,0-44,39.1-45.5,110.3-100.6,73.2-173.2-32.3-63.1-121.6-73.5-170.3-28.4-46.4,42.9-40.1,96.9-2.1,143.3,16,19.5,40.8,39.9,54.5,59.7,6,8.6,7.5,20.9,4.7,31.3-2.1,7.8-7.6,12.1-12.1,17.5h0Z"/>
    <path class="st3" d="M471.8,168.9c64.4-5.6,125.5,25.2,154.8,91,24.5,55.1,5.3,121-33,161.6-4.9,5.2-16.1,15.4-22.5,9,10.6-17.3,24.1-31,34.2-49,79.4-141.8-106.6-263.7-211.9-159.9-54.2,53.4-53.5,126.2-6.4,185.1,3.5,4.4,23.7,24.6,23.5,28.3-3.3,8.1-7,5.6-12.5,1.7-22-15.5-47.1-57.3-54.3-85-23.6-91.2,49.3-175.9,128.2-182.8h0Z"/>
    <path class="st3" d="M590.2,713.6c48.1-51.7,45.2-123.1,3.9-178.5-5.5-7.4-18.2-15.4-10.9-26.5,3.1-2.1,22.6,20.2,25.4,23.9,33.8,43.2,40.2,108,14.2,157.8-53.4,102.5-200.1,106.4-261.6,11.9-39.6-60.9-25.2-144.6,24.9-192.1,3.3-3.1,14.8-13.9,16.4-3.9.9,5.7-9.1,14-12.4,18.2-18.4,23.8-35.5,51.8-38.3,84-12,138.1,156.8,192.7,238.3,105.2h0Z"/>
    <path class="st3" d="M634.8,469.5c.3-3.7,8.1-4.5,10.9-4.5,2.3,0,4.3,1,6.4,1,6.8,0,20.7-1.3,26.5.1,8.2,2.1,4.7,13.4-3.8,14.2-11.9,1.2-24-1.3-35.9-1,0,5.5.2,11.5-1.6,16.7-2.7,7.9-8.7,4.2-10.9-2.3-3.1-9-3.5-22.3-6.9-31.9l-1.6-1.3c-4.4,8.2-8.6,34.7-14.9,39.5-3.8,2.9-7.8.6-9.5-3.9-1.9-5.4-3.5-27.3-7.5-29.4l-5.5,11.4c-2.3,2.1-17.1,1.1-21.2,1.1s-14.3,2.4-17.2-2.3c-4.1-6.6.1-10.8,6.2-11.8,4.7-.8,28.5.7,30-1.1-.6-1.3-.8-2.1-.5-3.6.9-3.8,4.8-15.4,6.8-18.6,1.9-3.1,5.6-6,9.1-3.5.8.6,4.7,18.8,5.4,21.8s.6,6.5,1.2,9.4c.2,1,1,4.1,2.2,4.3,3.7-14.4,4.4-35.2,16.5-44,2.7.5,4.6,2.7,5.7,5.4,3.5,8.4,4.7,22.4,8,31.5.3.8,1.3,3.1,2,2.7h0Z"/>
    <path class="st3" d="M434,478.4c-1.7.4-3.4.9-5.1,1-37.6,2.9-81.9.1-120.2,0-1.6,0-3.1.9-4.7.9-11.4-.3-12.3-13-3.4-14.3,13.7-2.1,36.1.1,50.9,0,22.4,0,46.8-2,69.3,0,6.9.6,14.3,3.2,13.2,12.5h0Z"/>
    <path class="st3" d="M262.2,466.1c4.4-1,16-1.6,17.6,4.2,3.4,12.1-20.5,12.7-22.7,5.5-1.4-4.8.8-8.8,5.1-9.7Z"/>
    <path class="st3" d="M466.1,625.2c5.9,6.5,2.1,31.4,2.6,40.7.4,8.4,3.1,18,7.4,25,1.3,2.2,4.7,4.3,4.8,5.5.3,4.2-1.8,3.4-3.4,5.4-.8,1-1.3,2.4-2.2,3.2-.8.7-7.9,3.4-8.6,3.5-2.3.2-17.5-5.3-20.6-6.7-19.6-8.7-38.8-25.8-47.6-47.6,23.9-.5,45.9-14.4,63.3-31.8,1,1.5,3.4,1.9,4.2,2.8h0Z"/>
    <path class="st3" d="M498.4,350.2c19.4,6.3,23.9,6.7,23.8,7.6,0,.4-.3-.9,0,0,1.3,3.5-13.7,19.2-12.1,22.1,4,7.1-26.5-10-21.8-2.7,2.8,4.5-28.4,25.5-25,29.7,10.3,12.9,33.8,13.9,31.5,33.4-.3,2.6,2,8.3,1.6,9.9-1.6,6.6-12,10.7-11.5,17.6l-2.6-14.5c-3.3-12.9-17.3-26.4-25.9-35.8-19-20.7-44.5-42.7-55.4-70.3-3-7.7-4.3-16.1-7.1-24l18.5,11.2,86.1,15.9h0Z"/>
    <path class="st3" d="M453.2,352.5c-19.4,6.3,1.9,4.4,2,5.4,0,.4.3-.9,0,0-1.4,3.5,13.7,19.2,12.1,22.1-4,7.1,4.6-7.3,0,0-2.8,4.5-8.9,8.9-12.2,13.1-10.3,12.9,25.3,27.8,27.5,47.3.3,2.6-2,8.3-1.6,9.9,1.6,6.6,4.3,10.7,3.8,17.6l10.4-14.5c3.3-12.9,17.3-26.4,25.9-35.8,19-20.7,44.5-42.7,55.4-70.3,3-7.7,4.3-16.1,7.1-24l-18.5,11.2-111.9,18.1h0Z"/>
    <path class="st3" d="M512,625.2c-5.9,6.5-51.9-12.1-52.3-2.8-.4,8.4-7.2,44-11.5,50.9-1.3,2.2,3.3,13.5,3.2,14.7-.3,4.2,15.9,2.2,17.4,4.1.8,1,0,0-14.3-5.3-.9-.3,9.6,20.9,10.1,21.5,3,3.8,59.6-2.7,64-4.9,25.5-12.8,30.1-11.3,51-49.4-23.9-.5-45.9-14.4-63.3-31.8-1,1.5-3.4,1.9-4.2,2.8h0Z"/>
  </g>
</svg>