<?xml version="1.0" encoding="UTF-8"?>
<svg xmlns="http://www.w3.org/2000/svg" version="1.1" viewBox="0 0 720.64 720.64">
  <defs>
    <style>
      .cls-1 {
        fill: #2d2e83;
      }

      .cls-2 {
        fill: #fff;
      }

      .cls-3 {
        fill: #dadada;
      }
    </style>
  </defs>
  <!-- Generator: Adobe Illustrator 28.7.5, SVG Export Plug-In . SVG Version: 1.2.0 Build 176)  -->
  <g>
    <g id="Calque_1">
      <g>
        <rect class="cls-1" x="0" width="720.64" height="720.64" rx="150.72" ry="150.72"/>
        <g>
          <path class="cls-2" d="M325.29,362.51c-18.68-15.35-41.33-28.83-57.07-47.27-47.33-55.41-40.99-129.82,13.6-177.4,44.99-39.22,123.03-42.5,169.09-3.52,62.06,52.52,65.01,138.7,3.95,193.29-5.72,5.11-43.19,32.57-43.16,36.95,0,1.19,2.18,3.86,3.1,4.85,8.07,8.66,22.72,16.74,32.14,25.09,34,30.16,53.64,63.07,52.85,110.1-1.03,61.09-54.89,112.69-114.05,119.25-98.36,10.91-179.91-79.46-138.53-175.51,16.39-38.05,44.34-50.73,72.08-76.71,1.68-1.57,7.44-6.67,6.02-9.12ZM452.77,422.54c-15.3-16.64-35.39-27.61-51.22-42.54-14.41-13.59-10.36-22.16,3.09-33.93,26.35-23.05,49.02-33.25,65.94-67.01,34.78-69.43-12.6-146.07-86.74-156.04-99.52-13.39-168.52,94.84-106.31,176.74,14.79,19.47,32.98,28.93,50.94,44.14,15.63,13.25,22.44,20.49,4.88,36.52-24.82,22.67-54.13,36.71-68.56,69.67-37.38,85.38,24.98,163.59,114.76,157.9,92.56-5.87,136.42-116.7,73.22-185.45Z"/>
          <path class="cls-2" d="M359.57,67.69c104.94-5.58,186.24,79.44,190.39,181.51,1.01,24.74,2.23,62.27-.05,86.3-.2,2.11-.76,5.25-1.68,7.12-.61,1.23-5.19,5.62-6.24,6.11-3.74,1.77-10.79-5.18-11.37-8.86-1.26-62.7,8.98-116.93-25.22-172.88-71.04-116.25-232.76-100.53-286.65,22.22-21.19,48.26-10.35,101.04-13.24,152.28-.84,3.75-5.71,5.62-8.16,8.31-5.52-2.47-11.58-7.54-11.06-14.25,2.14-47.88-6.36-96.72,9.7-142.68,23.91-68.42,90.55-121.3,163.59-125.18Z"/>
          <path class="cls-2" d="M194.88,393.33c5.81-1.2,10.93,4.62,11.6,10.05.47,3.85-.8,6.31-.84,9.57-.28,24.39-2.23,53.87-.84,77.5,8.68,147.36,201.06,207.11,292.27,89.79,43.32-55.72,32.61-112.24,33.53-178.65,3.72-11.26,15.32-10.25,19.27,0-1.26,59.5,8.55,114.24-21.81,168.26-70.85,126.05-253.53,122.05-321.96-4.97-27.52-51.09-18.49-103.97-19.79-159.82-.03-4.1,4.56-10.9,8.57-11.73Z"/>
          <path class="cls-2" d="M479.26,360.83c14.87-3.85,15.4,15.28,1.38,15.37-8.05.06-9.03-13.39-1.38-15.37Z"/>
          <circle class="cls-2" cx="252.42" cy="368.42" r="7.93"/>
          <path class="cls-3" d="M471.12,490.03c.9.66.96.77.96,1.8.02,6.07-.74,14.43-1.51,20.54-11.45,91.31-134.84,115.36-187.78,43.61-14.23-19.29-18.02-38.72-19.01-62.43,7.05.51,12.21-4.33,18.18-6.92,9.45-4.1,19.29-8.82,29.91-8.85,6.39-.01,7.74,5.73,11.78,9.17,10.53,8.96,14.01,1.1,16.48-9.06l20.94-82.08c3,17.64.27,35.54.4,53.31.02,2.08.93,4.01.95,6.09.2,19.75-.1,39.39.81,59.06.56,12.04.82,29.92,2.75,41.27,1.2,7.06,6.49,11.68,13.1,7.08,5.52-3.84,8.03-24.94,9.97-32.29,5.03-19.02,9.43-38.04,14.25-57.06,1.27-5.02,2.78-9.4,6.64-3.07,2.74,4.49,8.43,24.07,11.44,25.6,5.02-.13,9.77-3.63,14.73-4.69.95-.2,6.32-1.09,6.84-1.09h28.17Z"/>
          <path class="cls-3" d="M358.75,239.23c-.49,4.58.84,9.17,1.04,13.49,1.97,41.51-1.75,79.79-7.19,120.55-.21,1.55-1.98,10.16-3.04,10.25l-3.89-.9c7.72-17.14,4.18-33.67-10.15-45.75-17.3-14.57-33.91-23.26-48.81-41.87-16.69-20.84-22.56-44.27-22.04-70.86l26.86-2.71c23.55,1.3,44.86,11.61,67.22,17.81Z"/>
          <path class="cls-3" d="M470.68,237.35c-2.12,18.31-7.41,34.54-17.24,50.1-15.2,24.07-36.63,34.72-57.13,52.92-3.08,2.73-5.62,4.5-7.66,8.19-6.16,11.07-3.62,25.07,3.68,34.93-4.82-1.16-10.16,2.1-14.15,4.79l-1.69,12.82-4.41-155.82c24.82,5.92,49.75,9.06,74.82,2.19,8.42-2.31,15.71-7.04,23.78-10.11Z"/>
          <path class="cls-3" d="M377.37,449.54c6.61-2.99,9.74,5.88,16.71,5.29l-1.76,1.3.93,2.19,1.73-.4-16.3,62.07c-4.02,0-2.83-74.1-3.07-80.12l1.76,9.69Z"/>
          <path class="cls-3" d="M317.27,157.43c4.93-.81,6.86,1.56,7.24,6.51.37,4.86-7.69,7.65-11.35,10.53-3.48,2.74-7.85,6.21-10.66,9.59-4.41,5.29-7.09,17.4-14.91,12.3-5.48-3.58-1.09-10.74,1.55-15.09,3.94-6.51,20.84-22.65,28.12-23.84Z"/>
          <path class="cls-3" d="M267.31,480.34c-.28-7.14,3.52-13.53,5.32-20.23,6.84,2.33,12.32.21,14.51,8.8l-19.83,11.43Z"/>
        </g>
      </g>
    </g>
  </g>
</svg>