<?xml version="1.0" encoding="UTF-8"?>
<svg xmlns="http://www.w3.org/2000/svg" version="1.1" viewBox="0 0 542.19 181.88">
  <defs>
    <style>
      .cls-1 {
        fill: #fff;
      }
    </style>
  </defs>
  <!-- Generator: Adobe Illustrator 28.7.5, SVG Export Plug-In . SVG Version: 1.2.0 Build 176)  -->
  <g>
    <g id="Calque_1">
      <g>
        <path class="cls-1" d="M108.8,68.63c0,47.44-50.67,48.04-54.5,48.04h-24.02v63.18c0,.81-.61,1.82-2.02,1.82H2.02c-1.01,0-2.02-1.01-2.02-1.82v-93.06h54.3c4.04,0,23.82-.4,23.82-18.17s-20.19-18.77-23.82-18.77H0v-27.86c0-.81,1.01-1.82,2.02-1.82h52.28c6.46,0,54.5,1.01,54.5,48.45Z"/>
        <path class="cls-1" d="M235.37,22v105.77c0,34.11-26.24,53.9-60.56,53.9s-60.56-20.59-60.56-53.9V49.46h30.48v78.12c1.82,15.95,15.14,24.42,30.08,24.42s30.08-7.87,30.08-24.22V22c0-.81.81-1.82,2.22-1.82h26.24c1.01,0,2.02,1.01,2.02,1.82Z"/>
        <path class="cls-1" d="M241.42,120.71V22c0-.81,1.01-1.82,2.22-1.82h26.65c1.21,0,2.02,1.01,2.02,1.82v98.71h-30.88ZM330.85,153.61v26.24c0,.81-.81,1.82-2.22,1.82h-84.98c-1.21,0-2.22-1.01-2.22-1.82v-28.26h87.2c1.41,0,2.22,1.01,2.22,2.02Z"/>
        <path class="cls-1" d="M435.81,134.64c0,30.28-24.22,47.03-50.06,47.03h-.2v-29.07h.2c10.7,0,20.19-7.27,20.19-17.96,0-11.91-11.1-19.18-20.19-19.58-1.41,0-12.31,0-24.02-5.45-16.75-7.67-26.24-22-26.24-40.78,0-30.28,24.42-48.65,50.26-48.65,27.65,0,49.05,18.57,49.46,46.02.2.61-.81,1.61-2.22,1.61h-25.23c-1.21,0-2.22-1.01-2.22-1.61-.4-11.51-9.29-16.96-19.78-16.96-11.1,0-20.19,6.66-20.19,19.58,0,11.71,9.89,17.76,20.19,17.76,1.01,0,12.31,0,23.82,5.45,16.96,7.87,26.24,23.62,26.24,42.59Z"/>
        <path class="cls-1" d="M517.56,181.67h-74.49c-1.21,0-2.22-1.01-2.22-1.82V22c0-.81,1.01-1.82,2.22-1.82h74.49v29.27h-45.82v36.54h63.38c1.21,0,2.22.81,2.22,1.82v25.64c0,.81-1.01,1.82-2.22,1.82h-63.38v36.33h45.82v30.08Z"/>
      </g>
    </g>
  </g>
</svg>