<?xml version="1.0" encoding="UTF-8"?>
<svg xmlns="http://www.w3.org/2000/svg" version="1.1" viewBox="0 0 878.09 323.56">
  <defs>
    <style>
      .cls-1 {
        fill: #2d2e83;
      }

      .cls-2 {
        fill: #fff;
      }
    </style>
  </defs>
  <!-- Generator: Adobe Illustrator 28.7.5, SVG Export Plug-In . SVG Version: 1.2.0 Build 176)  -->
  <g>
    <g id="Calque_1">
      <g>
        <rect class="cls-1" width="878.09" height="323.56" rx="111.48" ry="111.48"/>
        <g>
          <path class="cls-2" d="M378.77,137.94c0,45.48-48.57,46.06-52.25,46.06h-23.03v60.57c0,.77-.58,1.74-1.94,1.74h-25.16c-.97,0-1.94-.97-1.94-1.74v-89.21h52.05c3.87,0,22.83-.39,22.83-17.42s-19.35-18-22.83-18h-52.05v-26.7c0-.77.97-1.74,1.94-1.74h50.12c6.19,0,52.25.97,52.25,46.44Z"/>
          <path class="cls-2" d="M500.1,93.24v101.4c0,32.7-25.16,51.67-58.05,51.67s-58.05-19.74-58.05-51.67v-75.08h29.22v74.89c1.74,15.29,14.51,23.42,28.83,23.42s28.83-7.55,28.83-23.22v-101.4c0-.77.77-1.74,2.13-1.74h25.16c.97,0,1.94.97,1.94,1.74Z"/>
          <path class="cls-2" d="M505.91,187.87v-94.63c0-.77.97-1.74,2.13-1.74h25.54c1.16,0,1.94.97,1.94,1.74v94.63h-29.61ZM591.64,219.41v25.16c0,.77-.77,1.74-2.13,1.74h-81.47c-1.16,0-2.13-.97-2.13-1.74v-27.09h83.6c1.35,0,2.13.97,2.13,1.94Z"/>
          <path class="cls-2" d="M692.27,201.22c0,29.03-23.22,45.09-47.99,45.09h-.19v-27.87h.19c10.26,0,19.35-6.97,19.35-17.22,0-11.42-10.64-18.38-19.35-18.77-1.35,0-11.8,0-23.03-5.23-16.06-7.35-25.16-21.09-25.16-39.09,0-29.03,23.42-46.64,48.18-46.64,26.51,0,47.02,17.8,47.41,44.12.19.58-.77,1.55-2.13,1.55h-24.19c-1.16,0-2.13-.97-2.13-1.55-.39-11.03-8.9-16.25-18.96-16.25-10.64,0-19.35,6.39-19.35,18.77,0,11.22,9.48,17.03,19.35,17.03.97,0,11.8,0,22.83,5.22,16.25,7.55,25.16,22.64,25.16,40.83Z"/>
          <path class="cls-2" d="M770.64,246.31h-71.41c-1.16,0-2.13-.97-2.13-1.74V93.24c0-.77.97-1.74,2.13-1.74h71.41v28.06h-43.93v35.03h60.76c1.16,0,2.13.77,2.13,1.74v24.58c0,.77-.97,1.74-2.13,1.74h-60.76v34.83h43.93v28.83Z"/>
        </g>
        <g>
          <path class="cls-2" d="M170.52,50.76c33.75-2.6,67.75,32.99,47.75,70.44-7.82,14.64-21.59,24.1-30.5,36.82-4.07,5.81-1.85,9.26,2.04,13.78,12.28,14.26,31.75,30.56,34.31,51.32,5.01,40.57-33.66,62.88-65.21,53.54-26.42-7.82-45.34-35.13-32.69-65.51,6.88-16.51,23.29-27.75,33.2-41.46,2.87-3.97,2.59-7.34-.18-11.29-16.61-19.07-43.25-39.82-35.19-70.62,5.8-22.2,26.63-35.48,46.46-37.01ZM161.1,175.93c-10.12,12.22-27.89,27.54-31.96,43.42-6.73,26.25,10.82,46.34,32.52,51.95,28.19,7.29,62.2-12.31,56.97-48.57-2.87-19.91-23.89-35.21-35.32-49.43-3.86-5.64-3.95-13.11,0-18.74,16.67-19.4,47.01-42.86,31.18-73.8-13.77-26.9-51.83-31.3-72.56-12.12-19.75,18.28-17.08,41.29-.88,61.05,6.81,8.3,17.39,17.01,23.2,25.43,2.54,3.69,3.18,8.91,1.99,13.33-.9,3.34-3.22,5.16-5.14,7.48Z"/>
          <path class="cls-2" d="M166.4,36.6c27.45-2.39,53.48,10.72,65.96,38.78,10.44,23.46,2.27,51.57-14.04,68.85-2.08,2.2-6.85,6.55-9.6,3.83,4.52-7.39,10.25-13.21,14.55-20.9,33.81-60.42-45.4-112.34-90.3-68.11-23.1,22.76-22.81,53.78-2.74,78.86,1.51,1.89,10.1,10.49,10.01,12.05-1.4,3.45-2.98,2.4-5.34.73-9.38-6.62-20.07-24.41-23.13-36.23-10.05-38.87,20.99-74.95,54.63-77.87Z"/>
          <path class="cls-2" d="M216.83,268.67c20.5-22.01,19.25-52.44,1.67-76.04-2.36-3.16-7.76-6.58-4.65-11.31,1.32-.88,9.62,8.61,10.84,10.17,14.39,18.41,17.11,46.03,6.06,67.24-22.74,43.66-85.25,45.34-111.46,5.06-16.89-25.96-10.74-61.62,10.62-81.85,1.4-1.32,6.3-5.94,6.98-1.64.38,2.43-3.88,5.95-5.27,7.75-7.86,10.15-15.11,22.07-16.3,35.8-5.13,58.85,66.81,82.12,101.53,44.83Z"/>
          <path class="cls-2" d="M235.83,164.7c.12-1.58,3.46-1.91,4.66-1.93,1-.01,1.82.41,2.72.41,2.89,0,8.81-.55,11.27.06,3.52.88,1.98,5.69-1.63,6.06-5.06.52-10.24-.56-15.3-.4.03,2.32.08,4.89-.67,7.1-1.15,3.35-3.71,1.78-4.64-.98-1.3-3.85-1.48-9.51-2.93-13.58l-.67-.57c-1.89,3.51-3.67,14.79-6.36,16.84-1.62,1.24-3.34.28-4.02-1.64-.82-2.29-1.5-11.62-3.19-12.52l-2.32,4.86c-.98.89-7.28.48-9.02.48s-6.09,1-7.33-.99c-1.75-2.82.05-4.61,2.62-5.02,2-.32,12.14.29,12.79-.49-.25-.54-.35-.9-.21-1.53.38-1.63,2.07-6.57,2.89-7.92s2.4-2.55,3.86-1.47c.36.27,2.02,8.02,2.29,9.31s.25,2.77.53,4c.1.44.44,1.76.93,1.82,1.57-6.12,1.86-15,7.04-18.74,1.13.23,1.94,1.16,2.42,2.29,1.5,3.56,1.98,9.55,3.43,13.4.12.33.56,1.34.85,1.15Z"/>
          <path class="cls-2" d="M150.29,168.49c-.72.17-1.43.38-2.18.44-16.02,1.22-34.88.05-51.2-.03-.7,0-1.34.38-2.01.36-4.87-.12-5.25-5.52-1.43-6.1,5.84-.88,15.37.05,21.66.03,9.55-.03,19.95-.87,29.53-.03,2.95.26,6.08,1.38,5.61,5.33Z"/>
          <path class="cls-2" d="M77.09,163.26c1.87-.42,6.8-.68,7.5,1.81,1.46,5.18-8.75,5.4-9.66,2.33-.6-2.03.32-3.73,2.16-4.14Z"/>
          <path class="cls-2" d="M163.97,231.02c2.52,2.77.91,13.36,1.11,17.33.18,3.56,1.32,7.69,3.17,10.63.57.91,2,1.82,2.04,2.36.13,1.81-.78,1.46-1.43,2.28-.35.44-.56,1.03-.93,1.36-.32.29-3.36,1.47-3.67,1.49-.96.07-7.47-2.27-8.77-2.84-8.37-3.7-16.54-10.99-20.27-20.27,10.17-.21,19.57-6.14,26.96-13.53.41.62,1.44.8,1.8,1.19Z"/>
          <path class="cls-2" d="M177.74,113.87c8.26,2.69,10.18,2.84,10.15,3.26-.01.19-.14-.37,0,0,.57,1.51-5.85,8.17-5.16,9.4,1.69,3.02-11.27-4.27-9.29-1.15,1.21,1.9-12.09,10.88-10.67,12.66,4.39,5.5,14.39,5.9,13.42,14.22-.13,1.12.84,3.55.69,4.2-.67,2.8-5.11,4.57-4.92,7.48l-1.13-6.2c-1.39-5.51-7.36-11.24-11.05-15.25-8.11-8.81-18.97-18.18-23.59-29.96-1.29-3.29-1.83-6.88-3.03-10.2l7.9,4.77,36.67,6.78Z"/>
          <path class="cls-2" d="M158.5,114.82c-8.26,2.69.81,1.89.83,2.31.01.19.14-.37,0,0-.57,1.51,5.85,8.17,5.16,9.4-1.69,3.02,1.98-3.12,0,0-1.21,1.9-3.78,3.81-5.2,5.59-4.39,5.5,10.78,11.82,11.74,20.14.13,1.12-.84,3.55-.69,4.2.67,2.8,1.81,4.57,1.62,7.48l4.42-6.2c1.39-5.51,7.36-11.24,11.05-15.25,8.11-8.81,18.97-18.18,23.59-29.96,1.29-3.29,1.83-6.88,3.03-10.2l-7.9,4.77-47.66,7.73Z"/>
          <path class="cls-2" d="M183.53,231.02c-2.52,2.77-22.1-5.16-22.3-1.19-.18,3.56-3.07,18.75-4.91,21.7-.57.91,1.39,5.73,1.35,6.28-.13,1.81,6.77.94,7.43,1.76.35.44,0,0-6.08-2.26-.39-.15,4.08,8.91,4.29,9.17,1.3,1.61,25.38-1.14,27.25-2.08,10.88-5.45,12.83-4.84,21.73-21.04-10.17-.21-19.57-6.14-26.96-13.53-.41.62-1.44.8-1.8,1.19Z"/>
        </g>
      </g>
    </g>
  </g>
</svg>