<?xml version="1.0" encoding="UTF-8"?>
<svg xmlns="http://www.w3.org/2000/svg" version="1.1" viewBox="0 0 999.56 368.32">
  <defs>
    <style>
      .cls-1 {
        fill: #2e8250;
      }

      .cls-2 {
        fill: #fff;
      }
    </style>
  </defs>
  <!-- Generator: Adobe Illustrator 28.7.5, SVG Export Plug-In . SVG Version: 1.2.0 Build 176)  -->
  <g>
    <g id="Calque_1">
      <g>
        <rect class="cls-1" width="999.56" height="368.32" rx="126.9" ry="126.9"/>
        <g>
          <path class="cls-2" d="M431.17,156.53c0,51.77-55.29,52.43-59.48,52.43h-26.21v68.95c0,.88-.66,1.98-2.2,1.98h-28.64c-1.1,0-2.2-1.1-2.2-1.98v-101.55h59.26c4.41,0,25.99-.44,25.99-19.83s-22.03-20.49-25.99-20.49h-59.26v-30.4c0-.88,1.1-1.98,2.2-1.98h57.06c7.05,0,59.48,1.1,59.48,52.87Z"/>
          <path class="cls-2" d="M569.29,105.65v115.43c0,37.23-28.64,58.82-66.09,58.82s-66.09-22.47-66.09-58.82v-85.47h33.26v85.25c1.98,17.4,16.52,26.66,32.82,26.66s32.82-8.59,32.82-26.44v-115.43c0-.88.88-1.98,2.42-1.98h28.64c1.1,0,2.2,1.1,2.2,1.98Z"/>
          <path class="cls-2" d="M575.9,213.37v-107.72c0-.88,1.1-1.98,2.42-1.98h29.08c1.32,0,2.2,1.1,2.2,1.98v107.72h-33.7ZM673.49,249.28v28.64c0,.88-.88,1.98-2.42,1.98h-92.74c-1.32,0-2.42-1.1-2.42-1.98v-30.84h95.17c1.54,0,2.42,1.1,2.42,2.2Z"/>
          <path class="cls-2" d="M788.03,228.57c0,33.04-26.44,51.33-54.63,51.33h-.22v-31.72h.22c11.68,0,22.03-7.93,22.03-19.61,0-13-12.12-20.93-22.03-21.37-1.54,0-13.44,0-26.21-5.95-18.28-8.37-28.64-24.01-28.64-44.5,0-33.04,26.66-53.09,54.85-53.09,30.18,0,53.53,20.27,53.97,50.23.22.66-.88,1.76-2.42,1.76h-27.54c-1.32,0-2.42-1.1-2.42-1.76-.44-12.56-10.13-18.5-21.59-18.5-12.12,0-22.03,7.27-22.03,21.37,0,12.78,10.79,19.39,22.03,19.39,1.1,0,13.44,0,25.99,5.95,18.5,8.59,28.64,25.77,28.64,46.48Z"/>
          <path class="cls-2" d="M877.25,279.9h-81.29c-1.32,0-2.42-1.1-2.42-1.98V105.65c0-.88,1.1-1.98,2.42-1.98h81.29v31.94h-50.01v39.87h69.17c1.32,0,2.42.88,2.42,1.98v27.98c0,.88-1.1,1.98-2.42,1.98h-69.17v39.65h50.01v32.82Z"/>
        </g>
        <g>
          <path class="cls-2" d="M196.53,57.78c38.41-2.96,77.12,37.56,54.35,80.18-8.9,16.67-24.57,27.43-34.72,41.91-4.63,6.61-2.1,10.54,2.33,15.69,13.97,16.23,36.14,34.79,39.06,58.42,5.7,46.18-38.32,71.58-74.23,60.94-30.07-8.9-51.61-39.99-37.21-74.58,7.83-18.8,26.51-31.59,37.8-47.19,3.27-4.52,2.95-8.36-.21-12.85-18.91-21.71-49.23-45.33-40.06-80.39,6.61-25.27,30.31-40.39,52.89-42.13ZM185.81,200.27c-11.52,13.91-31.75,31.35-36.38,49.42-7.66,29.88,12.32,52.75,37.02,59.13,32.09,8.3,70.81-14.01,64.85-55.29-3.27-22.67-27.19-40.08-40.21-56.27-4.39-6.42-4.5-14.92,0-21.33,18.97-22.08,53.52-48.79,35.49-84.01-15.67-30.62-59-35.63-82.59-13.8-22.48,20.8-19.44,47-1,69.49,7.75,9.45,19.8,19.36,26.41,28.95,2.89,4.2,3.62,10.14,2.26,15.18-1.02,3.8-3.66,5.87-5.85,8.51Z"/>
          <path class="cls-2" d="M191.84,41.66c31.25-2.72,60.88,12.21,75.09,44.15,11.88,26.71,2.58,58.7-15.98,78.37-2.37,2.51-7.79,7.46-10.93,4.36,5.14-8.41,11.67-15.04,16.56-23.79,38.49-68.78-51.69-127.88-102.79-77.53-26.29,25.91-25.97,61.22-3.12,89.77,1.72,2.15,11.49,11.94,11.4,13.72-1.59,3.93-3.39,2.73-6.08.83-10.67-7.53-22.85-27.78-26.33-41.24-11.44-44.25,23.9-85.31,62.18-88.65Z"/>
          <path class="cls-2" d="M249.25,305.84c23.33-25.06,21.91-59.69,1.9-86.56-2.68-3.6-8.83-7.49-5.3-12.88,1.5-1,10.95,9.8,12.34,11.57,16.38,20.95,19.48,52.39,6.9,76.54-25.88,49.69-97.04,51.62-126.88,5.76-19.23-29.55-12.22-70.15,12.09-93.18,1.59-1.5,7.17-6.76,7.94-1.87.44,2.77-4.42,6.77-6,8.82-8.94,11.55-17.2,25.12-18.56,40.75-5.84,66.99,76.05,93.48,115.57,51.04Z"/>
          <path class="cls-2" d="M270.88,187.48c.13-1.8,3.93-2.17,5.3-2.19,1.14-.01,2.07.47,3.09.47,3.29,0,10.02-.63,12.83.07,4,1,2.25,6.48-1.85,6.9-5.76.59-11.66-.64-17.42-.46.04,2.64.09,5.57-.77,8.08-1.3,3.81-4.22,2.03-5.28-1.12-1.48-4.39-1.68-10.83-3.34-15.46l-.77-.65c-2.16,4-4.17,16.84-7.24,19.17-1.85,1.41-3.8.31-4.58-1.87-.93-2.61-1.71-13.23-3.64-14.25l-2.65,5.53c-1.12,1.02-8.29.54-10.27.55s-6.93,1.14-8.34-1.12c-2-3.2.05-5.24,2.99-5.72,2.28-.37,13.82.33,14.56-.55-.28-.62-.4-1.03-.24-1.74.43-1.86,2.35-7.48,3.29-9.02s2.74-2.91,4.39-1.68c.41.31,2.3,9.12,2.61,10.59s.28,3.15.6,4.55c.12.5.5,2.01,1.06,2.07,1.79-6.97,2.11-17.08,8.01-21.34,1.29.26,2.21,1.32,2.75,2.6,1.71,4.06,2.25,10.87,3.91,15.25.14.38.64,1.52.97,1.3Z"/>
          <path class="cls-2" d="M173.51,191.8c-.82.2-1.63.43-2.48.5-18.24,1.39-39.7.06-58.28-.04-.8,0-1.52.43-2.29.41-5.54-.14-5.97-6.29-1.62-6.95,6.65-1,17.5.06,24.66.04,10.87-.04,22.71-.99,33.62-.03,3.36.29,6.92,1.57,6.39,6.07Z"/>
          <path class="cls-2" d="M90.18,185.84c2.13-.48,7.74-.78,8.54,2.06,1.66,5.89-9.96,6.14-11,2.66-.69-2.31.37-4.25,2.46-4.72Z"/>
          <path class="cls-2" d="M189.08,262.98c2.87,3.15,1.03,15.21,1.26,19.73.2,4.06,1.51,8.75,3.6,12.1.65,1.04,2.28,2.07,2.32,2.68.15,2.06-.88,1.67-1.63,2.6-.4.5-.64,1.17-1.05,1.55-.36.33-3.82,1.67-4.18,1.69-1.1.08-8.51-2.59-9.98-3.23-9.53-4.21-18.83-12.51-23.08-23.08,11.57-.24,22.28-6.99,30.69-15.4.47.71,1.64.91,2.05,1.36Z"/>
          <path class="cls-2" d="M204.75,129.62c9.4,3.06,11.59,3.24,11.56,3.71-.01.21-.16-.42,0,0,.65,1.72-6.66,9.3-5.88,10.7,1.92,3.44-12.83-4.86-10.58-1.31,1.37,2.17-13.76,12.39-12.15,14.41,4.99,6.26,16.38,6.72,15.28,16.18-.15,1.28.96,4.04.78,4.78-.76,3.19-5.82,5.2-5.6,8.52l-1.28-7.06c-1.58-6.27-8.38-12.79-12.58-17.36-9.23-10.03-21.6-20.69-26.85-34.1-1.47-3.75-2.09-7.83-3.45-11.62l9,5.43,41.75,7.71Z"/>
          <path class="cls-2" d="M182.85,130.7c-9.4,3.06.92,2.15.95,2.63.01.21.16-.42,0,0-.65,1.72,6.66,9.3,5.88,10.7-1.92,3.44,2.25-3.55,0,0-1.37,2.17-4.31,4.34-5.92,6.36-4.99,6.26,12.27,13.46,13.36,22.92.15,1.28-.96,4.04-.78,4.78.76,3.19,2.06,5.2,1.84,8.52l5.04-7.06c1.58-6.27,8.38-12.79,12.58-17.36,9.23-10.03,21.6-20.69,26.85-34.1,1.47-3.75,2.09-7.83,3.45-11.62l-9,5.43-54.25,8.8Z"/>
          <path class="cls-2" d="M211.35,262.98c-2.87,3.15-25.16-5.87-25.39-1.36-.2,4.06-3.49,21.35-5.59,24.7-.65,1.04,1.58,6.53,1.54,7.14-.15,2.06,7.71,1.07,8.46,2,.4.5,0,0-6.92-2.57-.45-.17,4.64,10.15,4.88,10.44,1.48,1.83,28.89-1.3,31.02-2.37,12.38-6.2,14.61-5.5,24.74-23.95-11.57-.24-22.28-6.99-30.69-15.4-.47.71-1.64.91-2.05,1.36Z"/>
        </g>
      </g>
    </g>
  </g>
</svg>