<?xml version="1.0" encoding="UTF-8"?>
<svg xmlns="http://www.w3.org/2000/svg" version="1.1" viewBox="0 0 673.88 673.88">
  <defs>
    <style>
      .cls-1 {
        fill: #2d2e83;
      }

      .cls-2 {
        fill: #fff;
      }

      .cls-3 {
        opacity: .35;
      }

      .cls-4 {
        fill: #dadada;
      }
    </style>
  </defs>
  <!-- Generator: Adobe Illustrator 28.7.5, SVG Export Plug-In . SVG Version: 1.2.0 Build 176)  -->
  <g>
    <g id="Calque_1">
      <rect class="cls-1" width="673.88" height="673.88" rx="140.94" ry="140.94"/>
      <g class="cls-3">
        <path class="cls-4" d="M199.21,305.08c0,44.14-47.15,44.71-50.72,44.71h-22.35v58.79c0,.75-.56,1.69-1.88,1.69h-24.42c-.94,0-1.88-.94-1.88-1.69v-86.59h50.53c3.76,0,22.16-.38,22.16-16.91s-18.78-17.47-22.16-17.47h-50.53v-25.92c0-.75.94-1.69,1.88-1.69h48.65c6.01,0,50.72.94,50.72,45.08Z"/>
        <path class="cls-4" d="M316.99,261.69v98.43c0,31.74-24.42,50.15-56.35,50.15s-56.35-19.16-56.35-50.15v-72.88h28.36v72.69c1.69,14.84,14.09,22.73,27.99,22.73s27.99-7.33,27.99-22.54v-98.43c0-.75.75-1.69,2.07-1.69h24.42c.94,0,1.88.94,1.88,1.69Z"/>
        <path class="cls-4" d="M322.62,353.54v-91.85c0-.75.94-1.69,2.07-1.69h24.79c1.13,0,1.88.94,1.88,1.69v91.85h-28.74ZM405.83,384.16v24.42c0,.75-.75,1.69-2.07,1.69h-79.08c-1.13,0-2.07-.94-2.07-1.69v-26.3h81.15c1.31,0,2.07.94,2.07,1.88Z"/>
        <path class="cls-4" d="M503.5,366.5c0,28.18-22.54,43.77-46.58,43.77h-.19v-27.05h.19c9.96,0,18.78-6.76,18.78-16.72,0-11.08-10.33-17.84-18.78-18.22-1.31,0-11.46,0-22.35-5.07-15.59-7.14-24.42-20.47-24.42-37.94,0-28.18,22.73-45.27,46.77-45.27,25.73,0,45.64,17.28,46.02,42.83.19.56-.75,1.5-2.07,1.5h-23.48c-1.13,0-2.07-.94-2.07-1.5-.38-10.71-8.64-15.78-18.41-15.78-10.33,0-18.78,6.2-18.78,18.22,0,10.89,9.2,16.53,18.78,16.53.94,0,11.46,0,22.16,5.07,15.78,7.33,24.42,21.98,24.42,39.63Z"/>
        <path class="cls-4" d="M579.57,410.27h-69.31c-1.13,0-2.07-.94-2.07-1.69v-146.89c0-.75.94-1.69,2.07-1.69h69.31v27.24h-42.64v34h58.98c1.13,0,2.07.75,2.07,1.69v23.86c0,.75-.94,1.69-2.07,1.69h-58.98v33.81h42.64v27.99Z"/>
      </g>
      <g>
        <path class="cls-2" d="M332.09,105.71c70.28-5.42,141.11,68.71,99.44,146.7-16.29,30.49-44.96,50.18-63.52,76.68-8.47,12.09-3.85,19.28,4.26,28.7,25.57,29.7,66.12,63.65,71.46,106.89,10.44,84.49-70.11,130.95-135.81,111.5-55.02-16.29-94.42-73.17-68.07-136.44,14.32-34.39,48.5-57.8,69.15-86.34,5.98-8.26,5.39-15.29-.38-23.51-34.59-39.72-90.07-82.93-73.29-147.09,12.09-46.23,55.46-73.9,96.77-77.09ZM312.46,366.41c-21.07,25.44-58.09,57.36-66.56,90.42-14.02,54.68,22.54,96.51,67.73,108.19,58.71,15.18,129.54-25.64,118.65-101.15-5.98-41.47-49.75-73.33-73.57-102.94-8.03-11.75-8.23-27.29,0-39.02,34.72-40.4,97.91-89.27,64.93-153.71-28.67-56.02-107.94-65.19-151.11-25.24-41.13,38.06-35.56,86-1.83,127.14,14.18,17.29,36.22,35.43,48.31,52.97,5.29,7.68,6.62,18.56,4.14,27.77-1.87,6.95-6.71,10.74-10.7,15.57Z"/>
        <path class="cls-2" d="M323.51,76.22c57.17-4.98,111.39,22.33,137.38,80.77,21.74,48.87,4.73,107.4-29.24,143.38-4.34,4.59-14.26,13.65-19.99,7.98,9.41-15.39,21.35-27.52,30.3-43.52,70.42-125.84-94.56-233.97-188.06-141.84-48.11,47.4-47.51,112.01-5.71,164.24,3.15,3.94,21.03,21.84,20.85,25.09-2.91,7.19-6.2,5-11.13,1.53-19.53-13.78-41.81-50.83-48.17-75.45-20.94-80.96,43.72-156.09,113.77-162.19Z"/>
        <path class="cls-2" d="M428.54,559.56c42.69-45.85,40.08-109.22,3.48-158.36-4.9-6.59-16.16-13.7-9.69-23.56,2.75-1.84,20.03,17.92,22.57,21.17,29.97,38.34,35.64,95.86,12.63,140.04-47.36,90.92-177.54,94.44-232.14,10.54-35.18-54.06-22.36-128.34,22.12-170.48,2.91-2.75,13.11-12.37,14.53-3.42.8,5.06-8.08,12.39-10.99,16.14-16.36,21.14-31.46,45.96-33.95,74.55-10.68,122.56,139.14,171.03,211.45,93.37Z"/>
        <path class="cls-2" d="M468.11,343.01c.25-3.29,7.2-3.98,9.7-4.01,2.08-.03,3.78.86,5.66.86,6.02,0,18.34-1.15,23.48.13,7.32,1.83,4.12,11.86-3.39,12.62-10.54,1.08-21.33-1.16-31.87-.84.07,4.84.17,10.19-1.4,14.78-2.39,6.98-7.72,3.71-9.67-2.05-2.72-8.03-3.08-19.81-6.11-28.28l-1.4-1.19c-3.94,7.31-7.64,30.8-13.24,35.08-3.38,2.58-6.95.57-8.38-3.42-1.71-4.77-3.13-24.21-6.65-26.07l-4.84,10.12c-2.04,1.86-15.17.99-18.78,1s-12.68,2.09-15.26-2.06c-3.65-5.86.09-9.59,5.46-10.46,4.17-.67,25.28.61,26.64-1.01-.51-1.13-.74-1.88-.44-3.18.78-3.4,4.31-13.68,6.02-16.5,1.67-2.74,5.01-5.32,8.04-3.07.75.56,4.21,16.69,4.78,19.38s.52,5.77,1.11,8.33c.21.92.92,3.67,1.94,3.8,3.27-12.75,3.87-31.25,14.65-39.04,2.36.48,4.05,2.42,5.03,4.76,3.13,7.42,4.12,19.89,7.15,27.91.26.69,1.18,2.79,1.77,2.39Z"/>
        <path class="cls-2" d="M289.95,350.91c-1.5.36-2.98.79-4.54.91-33.37,2.55-72.64.11-106.62-.07-1.46,0-2.79.79-4.19.75-10.13-.26-10.93-11.5-2.97-12.71,12.17-1.84,32.01.11,45.12.07,19.89-.06,41.56-1.81,61.51-.06,6.15.54,12.65,2.87,11.69,11.11Z"/>
        <path class="cls-2" d="M528.01,340.01c4.08-.92,20.18-1.51,17.79,7.01-2.58,9.19-22.62,8.82-22.64-1.21,0-3.09,2.31-5.23,4.85-5.8Z"/>
        <path class="cls-2" d="M137.5,340.01c3.89-.87,14.16-1.42,15.62,3.77,3.04,10.78-18.23,11.24-20.12,4.86-1.25-4.24.67-7.77,4.5-8.63Z"/>
        <path class="cls-2" d="M318.45,481.14c5.26,5.76,1.89,27.83,2.31,36.09.37,7.42,2.76,16.01,6.59,22.15,1.19,1.9,4.17,3.78,4.25,4.91.27,3.77-1.62,3.05-2.99,4.76-.73.91-1.17,2.14-1.93,2.84-.67.61-7,3.05-7.65,3.1-2.01.14-15.57-4.73-18.26-5.92-17.44-7.71-34.46-22.89-42.22-42.23,21.18-.44,40.77-12.79,56.15-28.18.85,1.29,3.01,1.67,3.75,2.48Z"/>
        <path class="cls-2" d="M347.12,237.15c17.2,5.59,21.2,5.92,21.15,6.79-.02.39-.29-.77,0,0,1.2,3.15-12.18,17.02-10.75,19.57,3.52,6.29-23.47-8.89-19.35-2.4,2.51,3.96-25.18,22.67-22.23,26.37,9.13,11.45,29.96,12.29,27.96,29.61-.27,2.34,1.76,7.39,1.43,8.75-1.39,5.84-10.64,9.51-10.24,15.58l-2.35-12.92c-2.89-11.47-15.33-23.4-23.02-31.76-16.88-18.34-39.51-37.86-49.13-62.4-2.69-6.86-3.82-14.33-6.31-21.25l16.46,9.94,76.38,14.11Z"/>
        <path class="cls-2" d="M307.04,239.13c-17.2,5.59,1.68,3.94,1.73,4.81.02.39.29-.77,0,0-1.2,3.15,12.18,17.02,10.75,19.57-3.52,6.29,4.12-6.49,0,0-2.51,3.96-7.88,7.94-10.83,11.64-9.13,11.45,22.44,24.62,24.45,41.94.27,2.34-1.76,7.39-1.43,8.75,1.39,5.84,3.78,9.51,3.37,15.58l9.21-12.92c2.89-11.47,15.33-23.4,23.02-31.76,16.88-18.34,39.51-37.86,49.13-62.4,2.69-6.86,3.82-14.33,6.31-21.25l-16.46,9.94-99.26,16.09Z"/>
        <path class="cls-2" d="M359.19,481.14c-5.26,5.76-46.03-10.74-46.45-2.48-.37,7.42-6.39,39.06-10.22,45.19-1.19,1.9,2.9,11.94,2.81,13.07-.27,3.77,14.11,1.95,15.48,3.66.73.91,0,0-12.66-4.7-.82-.3,8.49,18.57,8.92,19.11,2.71,3.35,52.86-2.38,56.75-4.33,22.65-11.35,26.73-10.07,45.26-43.81-21.18-.44-40.77-12.79-56.15-28.18-.85,1.29-3.01,1.67-3.75,2.48Z"/>
      </g>
    </g>
  </g>
</svg>