<?xml version="1.0" encoding="UTF-8"?>
<svg xmlns="http://www.w3.org/2000/svg" version="1.1" viewBox="0 0 625.12 625.12">
  <defs>
    <style>
      .cls-1 {
        fill: #2d2e83;
      }

      .cls-2 {
        fill: #fff;
      }
    </style>
  </defs>
  <!-- Generator: Adobe Illustrator 28.7.5, SVG Export Plug-In . SVG Version: 1.2.0 Build 176)  -->
  <g>
    <g id="Calque_1">
      <circle class="cls-1" cx="312.56" cy="312.56" r="312.56"/>
      <g>
        <path class="cls-2" d="M306.57,87.19c66.63-5.14,133.77,65.14,94.27,139.07-15.44,28.91-42.62,47.57-60.21,72.69-8.03,11.46-3.65,18.28,4.03,27.21,24.24,28.16,62.68,60.34,67.74,101.33,9.89,80.1-66.46,124.14-128.74,105.7-52.16-15.44-89.51-69.36-64.53-129.35,13.58-32.61,45.97-54.8,65.56-81.85,5.67-7.83,5.11-14.49-.36-22.28-32.79-37.66-85.38-78.62-69.48-139.44,11.46-43.83,52.58-70.06,91.73-73.08ZM287.96,334.34c-19.97,24.12-55.07,54.38-63.1,85.72-13.29,51.83,21.37,91.49,64.21,102.56,55.66,14.39,122.81-24.3,112.48-95.89-5.67-39.31-47.17-69.52-69.74-97.59-7.62-11.14-7.8-25.87,0-36.99,32.91-38.3,92.82-84.63,61.55-145.72-27.18-53.11-102.32-61.8-143.25-23.93-38.99,36.08-33.71,81.53-1.73,120.53,13.44,16.39,34.34,33.59,45.8,50.21,5.02,7.28,6.27,17.59,3.93,26.33-1.77,6.59-6.36,10.19-10.15,14.76Z"/>
        <path class="cls-2" d="M298.43,59.24c54.2-4.72,105.6,21.17,130.24,76.57,20.61,46.33,4.48,101.81-27.72,135.92-4.11,4.35-13.52,12.94-18.95,7.57,8.92-14.58,20.24-26.09,28.73-41.26,66.76-119.3-89.64-221.8-178.28-134.47-45.6,44.93-45.03,106.19-5.42,155.7,2.99,3.74,19.94,20.71,19.77,23.79-2.76,6.81-5.88,4.74-10.55,1.45-18.51-13.06-39.63-48.19-45.67-71.52-19.85-76.75,41.45-147.97,107.85-153.75Z"/>
        <path class="cls-2" d="M398,517.44c40.47-43.46,38-103.54,3.3-150.13-4.65-6.24-15.32-12.99-9.19-22.34,2.61-1.74,18.99,16.99,21.39,20.07,28.41,36.34,33.79,90.87,11.97,132.76-44.89,86.19-168.31,89.53-220.06,9.99-33.35-51.25-21.2-121.66,20.97-161.61,2.75-2.61,12.43-11.72,13.77-3.24.76,4.8-7.66,11.74-10.41,15.3-15.51,20.04-29.83,43.57-32.19,70.68-10.13,116.18,131.91,162.13,200.45,88.52Z"/>
        <path class="cls-2" d="M435.52,312.15c.23-3.12,6.82-3.77,9.2-3.8,1.98-.03,3.58.82,5.36.81,5.71,0,17.39-1.09,22.26.13,6.94,1.74,3.91,11.24-3.22,11.97-9.99,1.02-20.22-1.1-30.21-.8.06,4.59.16,9.66-1.33,14.02-2.26,6.61-7.32,3.52-9.16-1.94-2.58-7.61-2.92-18.78-5.79-26.81l-1.33-1.13c-3.74,6.93-7.24,29.2-12.55,33.25-3.2,2.45-6.59.54-7.95-3.25-1.62-4.52-2.96-22.95-6.31-24.71l-4.59,9.6c-1.94,1.76-14.38.94-17.8.95-3.46,0-12.02,1.98-14.47-1.95-3.46-5.56.09-9.09,5.18-9.91,3.96-.64,23.97.58,25.26-.96-.48-1.07-.7-1.78-.42-3.01.74-3.22,4.08-12.97,5.7-15.64,1.58-2.6,4.75-5.04,7.62-2.91.71.53,3.99,15.83,4.53,18.38.52,2.47.49,5.47,1.05,7.9.2.87.87,3.48,1.84,3.6,3.1-12.09,3.66-29.62,13.89-37.01,2.24.46,3.84,2.29,4.77,4.51,2.97,7.04,3.91,18.85,6.77,26.46.25.65,1.11,2.64,1.68,2.26Z"/>
        <path class="cls-2" d="M266.62,319.64c-1.43.34-2.83.75-4.31.87-31.63,2.42-68.86.11-101.08-.07-1.38,0-2.64.75-3.97.71-9.61-.24-10.36-10.91-2.82-12.05,11.53-1.74,30.35.1,42.77.06,18.86-.06,39.4-1.71,58.31-.06,5.83.51,12,2.72,11.09,10.53Z"/>
        <path class="cls-2" d="M492.3,309.31c3.87-.87,19.13-1.43,16.86,6.64-2.44,8.71-21.44,8.36-21.46-1.15,0-2.93,2.19-4.95,4.6-5.5Z"/>
        <path class="cls-2" d="M122.1,309.31c3.69-.83,13.42-1.34,14.81,3.57,2.88,10.22-17.28,10.66-19.07,4.61-1.19-4.01.63-7.37,4.26-8.18Z"/>
        <path class="cls-2" d="M293.64,443.1c4.98,5.46,1.79,26.38,2.19,34.21.35,7.04,2.62,15.18,6.25,20.99,1.13,1.81,3.95,3.59,4.03,4.66.26,3.57-1.53,2.89-2.83,4.51-.69.86-1.11,2.03-1.83,2.69-.63.58-6.63,2.89-7.25,2.94-1.91.14-14.76-4.48-17.31-5.61-16.53-7.31-32.66-21.7-40.02-40.03,20.07-.42,38.65-12.12,53.23-26.71.81,1.23,2.85,1.58,3.55,2.35Z"/>
        <path class="cls-2" d="M320.81,211.8c16.31,5.3,20.1,5.61,20.05,6.44-.02.37-.28-.73,0,0,1.14,2.98-11.55,16.14-10.19,18.56,3.34,5.97-22.25-8.43-18.34-2.27,2.38,3.76-23.87,21.49-21.07,24.99,8.66,10.85,28.41,11.65,26.5,28.07-.26,2.22,1.67,7,1.36,8.29-1.32,5.53-10.09,9.02-9.7,14.77l-2.23-12.24c-2.74-10.88-14.53-22.19-21.82-30.11-16.01-17.39-37.46-35.89-46.57-59.15-2.55-6.5-3.62-13.59-5.99-20.15l15.61,9.43,72.41,13.38Z"/>
        <path class="cls-2" d="M282.82,213.67c-16.31,5.3,1.59,3.74,1.64,4.56.02.37.28-.73,0,0-1.14,2.98,11.55,16.14,10.19,18.56-3.34,5.97,3.9-6.16,0,0-2.38,3.76-7.47,7.52-10.27,11.03-8.66,10.85,21.28,23.34,23.18,39.76.26,2.22-1.67,7-1.36,8.29,1.32,5.53,3.58,9.02,3.2,14.77l8.73-12.24c2.74-10.88,14.53-22.19,21.82-30.11,16.01-17.39,37.46-35.89,46.57-59.15,2.55-6.5,3.62-13.59,5.99-20.15l-15.61,9.43-94.1,15.26Z"/>
        <path class="cls-2" d="M332.26,443.1c-4.98,5.46-43.64-10.18-44.03-2.35-.35,7.04-6.06,37.03-9.69,42.84-1.13,1.81,2.75,11.32,2.67,12.39-.26,3.57,13.37,1.85,14.67,3.47.69.86,0,0-12.01-4.46-.78-.29,8.05,17.6,8.46,18.11,2.57,3.17,50.11-2.26,53.8-4.11,21.48-10.76,25.34-9.55,42.91-41.54-20.07-.42-38.65-12.12-53.23-26.71-.81,1.23-2.85,1.58-3.55,2.35Z"/>
      </g>
    </g>
  </g>
</svg>